# xmcd CD database file
#
# Track frame offsets:
#	150
#	14317
#	24617
#	33030
#	42415
#	56937
#	72285
#	87312
#	97767
#	111097
#	124352
#	135942
#	158075
#	171692
#
# Disc length: 2419 seconds
#
# Revision: 2
# Processed by: cddbd v1.5.1PL0 Copyright (c) Steve Scherf et al.
# Submitted via: CDex 1.51
#
DISCID=b809710e
DTITLE=The Persuasions - You're all I want for christmas
DYEAR=1997
DGENRE=Christmas
TTITLE0=You're All I Want For Christmas
TTITLE1=Jingle Bell Rock
TTITLE2=Rudolph The Red Nosed Reindeer
TTITLE3=The Jesus Song
TTITLE4=This Time Of Year
TTITLE5=Do You Hear What I Hear?
TTITLE6=Silent Night
TTITLE7=What Are You Doing New Year's Eve?
TTITLE8=The Christmas Song
TTITLE9=White Christmas
TTITLE10=Hey, Santa Claus
TTITLE11=Merry Christmas, Baby
TTITLE12=Christmas Means Love
TTITLE13=Joy To The World
EXTD=edited by Oliver Bardenheier YEAR: 1997
EXTT0=
EXTT1=
EXTT2=
EXTT3=
EXTT4=
EXTT5=
EXTT6=
EXTT7=
EXTT8=
EXTT9=
EXTT10=
EXTT11=
EXTT12=
EXTT13=
PLAYORDER=
